<?xml version="1.0" encoding="UTF-8" standalone="no"?>
<!DOCTYPE svg PUBLIC "-//W3C//DTD SVG 1.1//EN" "http://www.w3.org/Graphics/SVG/1.1/DTD/svg11.dtd">
<svg width="100%" height="100%" viewBox="0 0 360 360" version="1.1" xmlns="http://www.w3.org/2000/svg" xmlns:xlink="http://www.w3.org/1999/xlink" xml:space="preserve" xmlns:serif="http://www.serif.com/" style="fill-rule:evenodd;clip-rule:evenodd;stroke-linecap:round;stroke-linejoin:round;stroke-miterlimit:1.5;">
    <!-- <rect id="Artboard1" x="0" y="0" width="360" height="360"/> -->
    <g>
        <path d="M60,100L80,80L60,60" style="fill:none;stroke:rgb(100,100,100);stroke-width:2px;"/>
        <g transform="matrix(1,0,0,1,20,0)">
            <path d="M60,100L80,80L60,60" style="fill:none;stroke:rgb(100,100,100);stroke-width:2px;"/>
        </g>
    </g>
    <g transform="matrix(1,0,0,1,0,120)">
        <path d="M60,100L80,80L60,60" style="fill:none;stroke:rgb(100,100,100);stroke-width:2px;"/>
        <g transform="matrix(1,0,0,1,20,0)">
            <path d="M60,100L80,80L60,60" style="fill:none;stroke:rgb(100,100,100);stroke-width:2px;"/>
        </g>
    </g>
    <g transform="matrix(1,0,0,1,0,240)">
        <path d="M60,100L80,80L60,60" style="fill:none;stroke:rgb(100,100,100);stroke-width:2px;"/>
        <g transform="matrix(1,0,0,1,20,0)">
            <path d="M60,100L80,80L60,60" style="fill:none;stroke:rgb(100,100,100);stroke-width:2px;"/>
        </g>
    </g>
    <g transform="matrix(1,0,0,1,120,0)">
        <path d="M60,100L80,80L60,60" style="fill:none;stroke:rgb(100,100,100);stroke-width:2px;"/>
        <g transform="matrix(1,0,0,1,20,0)">
            <path d="M60,100L80,80L60,60" style="fill:none;stroke:rgb(100,100,100);stroke-width:2px;"/>
        </g>
    </g>
    <g transform="matrix(1,0,0,1,120,120)">
        <path d="M60,100L80,80L60,60" style="fill:none;stroke:rgb(100,100,100);stroke-width:2px;"/>
        <g transform="matrix(1,0,0,1,20,0)">
            <path d="M60,100L80,80L60,60" style="fill:none;stroke:rgb(100,100,100);stroke-width:2px;"/>
        </g>
    </g>
    <g transform="matrix(1,0,0,1,120,240)">
        <path d="M60,100L80,80L60,60" style="fill:none;stroke:rgb(100,100,100);stroke-width:2px;"/>
        <g transform="matrix(1,0,0,1,20,0)">
            <path d="M60,100L80,80L60,60" style="fill:none;stroke:rgb(100,100,100);stroke-width:2px;"/>
        </g>
    </g>
    <g transform="matrix(1,0,0,1,240,0)">
        <path d="M60,100L80,80L60,60" style="fill:none;stroke:rgb(100,100,100);stroke-width:2px;"/>
        <g transform="matrix(1,0,0,1,20,0)">
            <path d="M60,100L80,80L60,60" style="fill:none;stroke:rgb(100,100,100);stroke-width:2px;"/>
        </g>
    </g>
    <g transform="matrix(1,0,0,1,240,120)">
        <path d="M60,100L80,80L60,60" style="fill:none;stroke:rgb(100,100,100);stroke-width:2px;"/>
        <g transform="matrix(1,0,0,1,20,0)">
            <path d="M60,100L80,80L60,60" style="fill:none;stroke:rgb(100,100,100);stroke-width:2px;"/>
        </g>
    </g>
    <g transform="matrix(1,0,0,1,240,240)">
        <path d="M60,100L80,80L60,60" style="fill:none;stroke:rgb(100,100,100);stroke-width:2px;"/>
        <g transform="matrix(1,0,0,1,20,0)">
            <path d="M60,100L80,80L60,60" style="fill:none;stroke:rgb(100,100,100);stroke-width:2px;"/>
        </g>
    </g>
</svg>
