<?xml version="1.0" encoding="UTF-8" standalone="no"?>
<!DOCTYPE svg PUBLIC "-//W3C//DTD SVG 1.1//EN" "http://www.w3.org/Graphics/SVG/1.1/DTD/svg11.dtd">
<svg width="100%" height="100%" viewBox="0 0 360 360" version="1.1" xmlns="http://www.w3.org/2000/svg" xmlns:xlink="http://www.w3.org/1999/xlink" xml:space="preserve" xmlns:serif="http://www.serif.com/" style="fill-rule:evenodd;clip-rule:evenodd;stroke-linejoin:round;stroke-miterlimit:1.5;">
    <rect id="Artboard1" x="0" y="0" width="360" height="360" style="fill:none;"/>
    <clipPath id="_clip1">
        <rect id="Artboard11" serif:id="Artboard1" x="0" y="0" width="360" height="360"/>
    </clipPath>
    <g clip-path="url(#_clip1)">
        <!-- <g transform="matrix(1.0232,0,0,1,0,0)">
            <rect x="0" y="0" width="390.932" height="400"/>
        </g> -->
        <g transform="matrix(0.5,0,0,0.5,280,280)">
            <path d="M80,40L80,120" style="fill:none;stroke:rgb(245,245,220);stroke-width:3px;"/>
            <path d="M40,80L120,80" style="fill:none;stroke:rgb(245,245,220);stroke-width:3px;"/>
        </g>
        <g transform="matrix(0.5,0,0,0.5,280,160)">
            <path d="M80,40L80,120" style="fill:none;stroke:rgb(245,245,220);stroke-width:3px;"/>
            <path d="M40,80L120,80" style="fill:none;stroke:rgb(245,245,220);stroke-width:3px;"/>
        </g>
        <g transform="matrix(0.5,0,0,0.5,280,40)">
            <path d="M80,40L80,120" style="fill:none;stroke:rgb(245,245,220);stroke-width:3px;"/>
            <path d="M40,80L120,80" style="fill:none;stroke:rgb(245,245,220);stroke-width:3px;"/>
        </g>
        <g transform="matrix(0.5,0,0,0.5,160,280)">
            <path d="M80,40L80,120" style="fill:none;stroke:rgb(245,245,220);stroke-width:3px;"/>
            <path d="M40,80L120,80" style="fill:none;stroke:rgb(245,245,220);stroke-width:3px;"/>
        </g>
        <g transform="matrix(0.5,0,0,0.5,160,160)">
            <path d="M80,40L80,120" style="fill:none;stroke:rgb(245,245,220);stroke-width:3px;"/>
            <path d="M40,80L120,80" style="fill:none;stroke:rgb(245,245,220);stroke-width:3px;"/>
        </g>
        <g transform="matrix(0.5,0,0,0.5,160,40)">
            <path d="M80,40L80,120" style="fill:none;stroke:rgb(245,245,220);stroke-width:3px;"/>
            <path d="M40,80L120,80" style="fill:none;stroke:rgb(245,245,220);stroke-width:3px;"/>
        </g>
        <g transform="matrix(0.5,0,0,0.5,40,280)">
            <path d="M80,40L80,120" style="fill:none;stroke:rgb(245,245,220);stroke-width:3px;"/>
            <path d="M40,80L120,80" style="fill:none;stroke:rgb(245,245,220);stroke-width:3px;"/>
        </g>
        <g transform="matrix(0.5,0,0,0.5,40,160)">
            <path d="M80,40L80,120" style="fill:none;stroke:rgb(245,245,220);stroke-width:3px;"/>
            <path d="M40,80L120,80" style="fill:none;stroke:rgb(245,245,220);stroke-width:3px;"/>
        </g>
        <g transform="matrix(0.5,0,0,0.5,40,40)">
            <path d="M80,40L80,120" style="fill:none;stroke:rgb(245,245,220);stroke-width:3px;"/>
            <path d="M40,80L120,80" style="fill:none;stroke:rgb(245,245,220);stroke-width:3px;"/>
        </g>
    </g>
</svg>
